<svg xmlns="http://www.w3.org/2000/svg" version="1.1" xmlns:xlink="http://www.w3.org/1999/xlink" xmlns:svgjs="http://svgjs.com/svgjs" width="1440" height="2000" preserveAspectRatio="none" viewBox="0 0 1440 2000"><g mask="url(&quot;#SvgjsMask1348&quot;)" fill="none"><rect width="1440" height="2000" x="0" y="0" fill="url(#SvgjsLinearGradient1349)"></rect><path d="M1440 0L808.51 0L1440 415.82z" fill="rgba(255, 255, 255, .1)"></path><path d="M808.51 0L1440 415.82L1440 528.97L486.15999999999997 0z" fill="rgba(255, 255, 255, .075)"></path><path d="M486.15999999999997 0L1440 528.97L1440 1363.6L324.69999999999993 0z" fill="rgba(255, 255, 255, .05)"></path><path d="M324.70000000000005 0L1440 1363.6L1440 1732L293.38000000000005 0z" fill="rgba(255, 255, 255, .025)"></path><path d="M0 2000L614.75 2000L0 1863.26z" fill="rgba(0, 0, 0, .1)"></path><path d="M0 1863.26L614.75 2000L1025.77 2000L0 1652.88z" fill="rgba(0, 0, 0, .075)"></path><path d="M0 1652.88L1025.77 2000L1147.12 2000L0 1122.7200000000003z" fill="rgba(0, 0, 0, .05)"></path><path d="M0 1122.72L1147.12 2000L1239.53 2000L0 430.1z" fill="rgba(0, 0, 0, .025)"></path></g><defs><mask id="SvgjsMask1348"><rect width="1440" height="2000" fill="#ffffff"></rect></mask><linearGradient x1="-9.72%" y1="93%" x2="109.72%" y2="7%" gradientUnits="userSpaceOnUse" id="SvgjsLinearGradient1349"><stop stop-color="rgba(141, 240, 255, 1)" offset="0"></stop><stop stop-color="rgba(203, 248, 255, 1)" offset="1"></stop></linearGradient></defs></svg>